M48
;GenerationSoftware,Autodesk,EAGLE,9.6.2*%
;CreationDate,2023-09-15T20:51:31Z*%
FMAT,2
ICI,OFF
METRIC,TZ,000.000
T2C0.305
T1C1.016
%
G90
M71
T1
X104902Y106553
X58166Y12573
X11430Y3175
X34798Y3175
X58166Y3175
X81534Y3175
X104902Y3175
X11430Y12573
X34798Y12573
X81534Y12573
X104902Y12573
X11430Y21971
X34798Y21971
X58166Y21971
X81534Y21971
X104902Y21971
X11430Y31369
X34798Y31369
X58166Y31369
X81534Y31369
X104902Y31369
X11430Y40767
X34798Y40767
X58166Y40767
X81534Y40767
X104902Y40767
X11430Y50165
X34798Y50165
X58166Y50165
X81534Y50165
X104902Y50165
X11430Y59563
X34798Y59563
X58166Y59563
X81534Y59563
X104902Y59563
X11430Y68961
X34798Y68961
X58166Y68961
X81534Y68961
X104902Y68961
X11430Y78359
X34798Y78359
X58166Y78359
X81534Y78359
X104902Y78359
X11430Y87757
X34798Y87757
X58166Y87757
X81534Y87757
X104902Y87757
X11430Y97155
X34798Y97155
X58166Y97155
X81534Y97155
X104902Y97155
X11430Y106553
X34798Y106553
X58166Y106553
X81534Y106553
T2
X7366Y20320
X16510Y21717
X8001Y25146
X13970Y23622
X19050Y21717
X3556Y21209
X30734Y20320
X39878Y21717
X31369Y25146
X37338Y23622
X42418Y21717
X26924Y21209
X54102Y20320
X63246Y21717
X54737Y25146
X60706Y23622
X65786Y21717
X50292Y21209
X77470Y20320
X86614Y21717
X78105Y25146
X84074Y23622
X89154Y21717
X73660Y21209
X100838Y20320
X109982Y21717
X101473Y25146
X107442Y23622
X112522Y21717
X97028Y21209
X7366Y29718
X16510Y31115
X8001Y34544
X13970Y33020
X19050Y31115
X3556Y30607
X30734Y29718
X39878Y31115
X31369Y34544
X37338Y33020
X42418Y31115
X26924Y30607
X54102Y29718
X63246Y31115
X54737Y34544
X60706Y33020
X65786Y31115
X50292Y30607
X77470Y29718
X86614Y31115
X78105Y34544
X84074Y33020
X89154Y31115
X73660Y30607
X100838Y29718
X109982Y31115
X101473Y34544
X107442Y33020
X112522Y31115
X97028Y30607
X7366Y39116
X16510Y40513
X8001Y43942
X13970Y42418
X19050Y40513
X3556Y40005
X30734Y39116
X39878Y40513
X31369Y43942
X37338Y42418
X42418Y40513
X26924Y40005
X54102Y39116
X63246Y40513
X54737Y43942
X60706Y42418
X65786Y40513
X50292Y40005
X77470Y39116
X86614Y40513
X78105Y43942
X84074Y42418
X89154Y40513
X73660Y40005
X100838Y39116
X109982Y40513
X101473Y43942
X107442Y42418
X112522Y40513
X97028Y40005
X7366Y48514
X16510Y49911
X8001Y53340
X13970Y51816
X19050Y49911
X3556Y49403
X30734Y48514
X39878Y49911
X31369Y53340
X37338Y51816
X42418Y49911
X26924Y49403
X54102Y48514
X63246Y49911
X54737Y53340
X60706Y51816
X65786Y49911
X50292Y49403
X77470Y48514
X86614Y49911
X78105Y53340
X84074Y51816
X89154Y49911
X73660Y49403
X100838Y48514
X109982Y49911
X101473Y53340
X107442Y51816
X112522Y49911
X97028Y49403
X7366Y57912
X16510Y59309
X8001Y62738
X13970Y61214
X19050Y59309
X3556Y58801
X30734Y57912
X39878Y59309
X31369Y62738
X37338Y61214
X42418Y59309
X26924Y58801
X54102Y57912
X63246Y59309
X54737Y62738
X60706Y61214
X65786Y59309
X50292Y58801
X77470Y57912
X86614Y59309
X78105Y62738
X84074Y61214
X89154Y59309
X73660Y58801
X100838Y57912
X109982Y59309
X101473Y62738
X107442Y61214
X112522Y59309
X97028Y58801
X89154Y12319
X16510Y68707
X8001Y72136
X13970Y70612
X19050Y68707
X3556Y68199
X30734Y67310
X39878Y68707
X31369Y72136
X37338Y70612
X42418Y68707
X26924Y68199
X54102Y67310
X63246Y68707
X54737Y72136
X60706Y70612
X65786Y68707
X50292Y68199
X77470Y67310
X86614Y68707
X78105Y72136
X84074Y70612
X89154Y68707
X73660Y68199
X100838Y67310
X109982Y68707
X101473Y72136
X107442Y70612
X112522Y68707
X97028Y68199
X7366Y76708
X16510Y78105
X8001Y81534
X13970Y80010
X19050Y78105
X3556Y77597
X30734Y76708
X39878Y78105
X31369Y81534
X37338Y80010
X42418Y78105
X26924Y77597
X54102Y76708
X63246Y78105
X54737Y81534
X60706Y80010
X65786Y78105
X50292Y77597
X77470Y76708
X86614Y78105
X78105Y81534
X84074Y80010
X89154Y78105
X73660Y77597
X100838Y76708
X109982Y78105
X101473Y81534
X107442Y80010
X112522Y78105
X97028Y77597
X7366Y86106
X16510Y87503
X8001Y90932
X13970Y89408
X19050Y87503
X3556Y86995
X30734Y86106
X39878Y87503
X31369Y90932
X37338Y89408
X42418Y87503
X26924Y86995
X54102Y86106
X63246Y87503
X54737Y90932
X60706Y89408
X65786Y87503
X50292Y86995
X77470Y86106
X86614Y87503
X78105Y90932
X84074Y89408
X89154Y87503
X73660Y86995
X100838Y86106
X109982Y87503
X101473Y90932
X107442Y89408
X112522Y87503
X97028Y86995
X7366Y95504
X16510Y96901
X8001Y100330
X13970Y98806
X19050Y96901
X3556Y96393
X30734Y95504
X39878Y96901
X31369Y100330
X37338Y98806
X42418Y96901
X26924Y96393
X54102Y95504
X63246Y96901
X54737Y100330
X7366Y1524
X65786Y96901
X50292Y96393
X77470Y95504
X86614Y96901
X78105Y100330
X84074Y98806
X89154Y96901
X73660Y96393
X100838Y95504
X109982Y96901
X101473Y100330
X107442Y98806
X112522Y96901
X97028Y96393
X7366Y104902
X16510Y106299
X8001Y109728
X13970Y108204
X19050Y106299
X3556Y105791
X30734Y104902
X39878Y106299
X31369Y109728
X37338Y108204
X42418Y106299
X26924Y105791
X54102Y104902
X63246Y106299
X54737Y109728
X60706Y108204
X65786Y106299
X50292Y105791
X77470Y104902
X86614Y106299
X78105Y109728
X84074Y108204
X89154Y106299
X73660Y105791
X100838Y104902
X109982Y106299
X101473Y109728
X107442Y108204
X112522Y106299
X97028Y105791
X16510Y2921
X8001Y6350
X13970Y4826
X19050Y2921
X3556Y2413
X30734Y1524
X39878Y2921
X7366Y67310
X31369Y6350
X37338Y4826
X42418Y2921
X26924Y2413
X54102Y1524
X63246Y2921
X54737Y6350
X60706Y4826
X65786Y2921
X50292Y2413
X77470Y1524
X86614Y2921
X78105Y6350
X84074Y4826
X89154Y2921
X73660Y2413
X100838Y1524
X109982Y2921
X101473Y6350
X107442Y4826
X112522Y2921
X97028Y2413
X7366Y10922
X16510Y12319
X8001Y15748
X13970Y14224
X19050Y12319
X3556Y11811
X30734Y10922
X39878Y12319
X31369Y15748
X37338Y14224
X42418Y12319
X26924Y11811
X54102Y10922
X63246Y12319
X54737Y15748
X60706Y14224
X65786Y12319
X50292Y11811
X77470Y10922
X86614Y12319
X78105Y15748
X84074Y14224
X73660Y11811
X100838Y10922
X109982Y12319
X101473Y15748
X107442Y14224
X112522Y12319
X97028Y11811
X60706Y98806
M30